Coordinates
version=1
nRows=14
nColumns=24
inDegrees=yes

Units are S.I. units (second, meters, Newtons, ...)
Angles are in degrees.

endheader
time	pelvis_tilt	pelvis_list	pelvis_rotation	pelvis_tx	pelvis_ty	pelvis_tz	hip_flexion_r	hip_adduction_r	hip_rotation_r	knee_angle_r	ankle_angle_r	subtalar_angle_r	mtp_angle_r	hip_flexion_l	hip_adduction_l	hip_rotation_l	knee_angle_l	ankle_angle_l	subtalar_angle_l	mtp_angle_l	lumbar_extension	lumbar_bending	lumbar_rotation
      3.84000000	      0.17733247	      8.35292669	     -5.22886150	     -0.52979836	      0.93686470	      0.22271963	     21.85754954	     -6.03747848	      3.35224758	    -67.66416413	      9.42516001	    -15.20836740	      0.00000000	     11.16837709	     14.27676095	      1.99942414	    -21.39340388	     16.68301951	    -16.97090550	      0.00000000	     -8.59559262	    -12.73032868	     -9.33210952
      3.84500000	      0.24876684	      8.06336931	     -4.96316335	     -0.52272118	      0.93816845	      0.22230533	     22.33373623	     -5.78756066	      3.14631354	    -66.73736766	      9.98481414	    -14.54966097	      0.00000000	     10.21468944	     14.13292493	      2.67201758	    -20.80368764	     16.60747238	    -17.36536731	      0.00000000	     -8.72036659	    -12.32290373	     -9.59269141
      3.85000000	      0.34519770	      7.77896255	     -4.71201347	     -0.51565081	      0.93942587	      0.22189361	     22.76297388	     -5.54246411	      2.94927066	    -65.73024020	     10.41673193	    -14.00228384	      0.00000000	      9.21455919	     13.99222436	      3.42381172	    -20.17081485	     16.50262182	    -17.84888183	      0.00000000	     -8.87177272	    -11.91997312	     -9.85836516
      3.85500000	      0.41055364	      7.49955839	     -4.43176384	     -0.50858581	      0.94059819	      0.22146798	     23.18210132	     -5.31139202	      2.72500675	    -64.62196247	     10.80473849	    -13.51508963	      0.00000000	      8.26590496	     13.83077800	      4.10422653	    -19.56368227	     16.38602122	    -18.25549952	      0.00000000	     -8.98667603	    -11.52263863	    -10.09523409
      3.86000000	      0.48354350	      7.23440745	     -4.14401137	     -0.50153027	      0.94167896	      0.22103853	     23.56699923	     -5.09782053	      2.50241844	    -63.43881500	     11.11793544	    -13.11290890	      0.00000000	      7.30274335	     13.67358658	      4.81431654	    -18.93708187	     16.27777120	    -18.68430657	      0.00000000	     -9.11052570	    -11.13985023	    -10.37409779
      3.86500000	      0.54032733	      6.98369668	     -3.85157685	     -0.49448631	      0.94264685	      0.22062020	     23.94121340	     -4.90038214	      2.28085378	    -62.17722146	     11.37727750	    -12.78860671	      0.00000000	      6.36629183	     13.51095034	      5.48422276	    -18.31534316	     16.18443907	    -19.07892908	      0.00000000	     -9.21364480	    -10.77475517	    -10.64973572
      3.87000000	      0.58548425	      6.74430103	     -3.54837014	     -0.48743638	      0.94351279	      0.22019875	     24.29551413	     -4.72252931	      2.04816644	    -60.83525604	     11.58506030	    -12.53822209	      0.00000000	      5.44812629	     13.34304135	      6.12671375	    -17.69619972	     16.09884843	    -19.45172801	      0.00000000	     -9.30131328	    -10.42447687	    -10.92359725
      3.87500000	      0.64905608	      6.52967203	     -3.24203482	     -0.48040752	      0.94432084	      0.21981449	     24.60024784	     -4.56220290	      1.84951852	    -59.41842613	     11.72932379	    -12.35700462	      0.00000000	      4.50452994	     13.18800783	      6.81177276	    -17.05884920	     15.98053982	    -19.85403520	      0.00000000	     -9.41283553	    -10.11174683	    -11.25723202
      3.88000000	      0.68467498	      6.32416384	     -2.92983200	     -0.47337034	      0.94499525	      0.21941533	     24.90221404	     -4.42259074	      1.63518201	    -57.92154747	     11.84522042	    -12.24620531	      0.00000000	      3.60352431	     13.02406186	      7.43527469	    -16.43491270	     15.88851060	    -20.21259258	      0.00000000	     -9.48648828	     -9.80344000	    -11.55570003
      3.88500000	      0.71834664	      6.13553744	     -2.62134145	     -0.46632690	      0.94557050	      0.21900814	     25.17714458	     -4.30563655	      1.43074508	    -56.35257225	     11.91948745	    -12.19129106	      0.00000000	      2.70737104	     12.86510799	      8.04422271	    -15.80815916	     15.79745011	    -20.56492864	      0.00000000	     -9.55201385	     -9.50733846	    -11.85725583
      3.89000000	      0.73903019	      5.95670021	     -2.30796602	     -0.45930210	      0.94604171	      0.21864619	     25.43284468	     -4.19882591	      1.23259465	    -54.70790148	     11.95044530	    -12.19601432	      0.00000000	      1.83247565	     12.69802332	      8.63401092	    -15.18685443	     15.71527248	    -20.89401171	      0.00000000	     -9.60836906	     -9.23544919	    -12.15765297
      3.89500000	      0.76269909	      5.79388822	     -2.00323874	     -0.45227667	      0.94642343	      0.21828212	     25.65654380	     -4.11397094	      1.04844006	    -52.99512665	     11.94626746	    -12.23377261	      0.00000000	      0.95621503	     12.53722705	      9.21367249	    -14.56019879	     15.62308934	    -21.23245345	      0.00000000	     -9.66338856	     -8.97731704	    -12.45903936
      3.90000000	      0.74226484	      5.63387308	     -1.70682168	     -0.44523034	      0.94665419	      0.21793189	     25.89824888	     -4.04159371	      0.84733305	    -51.21356670	     11.89846411	    -12.31389821	      0.00000000	      0.14257810	     12.36321214	      9.71582605	    -13.95486541	     15.58393127	    -21.49654937	      0.00000000	     -9.65599830	     -8.72256223	    -12.68570351
      3.90500000	      0.78703546	      5.50066977	     -1.40766063	     -0.43823589	      0.94690050	      0.21762050	     26.03163629	     -3.98638416	      0.71565545	    -49.36175136	     11.81991157	    -12.40124725	      0.00000000	     -0.74886469	     12.21003525	     10.30310574	    -13.32864699	     15.45446603	    -21.86006497	      0.00000000	     -9.74664003	     -8.50519567	    -13.04103095
